<?xml version="1.0" encoding="UTF-8" standalone="no"?>
<!-- Created with Inkscape (http://www.inkscape.org/) -->

<svg
   width="210mm"
   height="297mm"
   viewBox="0 0 210 297"
   version="1.1"
   id="svg5"
   xml:space="preserve"
   inkscape:version="1.2.2 (b0a8486541, 2022-12-01)"
   sodipodi:docname="lava.svg"
   inkscape:export-filename="lavaok.svg"
   inkscape:export-xdpi="96"
   inkscape:export-ydpi="96"
   xmlns:inkscape="http://www.inkscape.org/namespaces/inkscape"
   xmlns:sodipodi="http://sodipodi.sourceforge.net/DTD/sodipodi-0.dtd"
   xmlns="http://www.w3.org/2000/svg"
   xmlns:svg="http://www.w3.org/2000/svg"><sodipodi:namedview
     id="namedview7"
     pagecolor="#505050"
     bordercolor="#ffffff"
     borderopacity="1"
     inkscape:showpageshadow="0"
     inkscape:pageopacity="0"
     inkscape:pagecheckerboard="1"
     inkscape:deskcolor="#505050"
     inkscape:document-units="mm"
     showgrid="false"
     inkscape:zoom="0.47304293"
     inkscape:cx="397.42693"
     inkscape:cy="812.82263"
     inkscape:window-width="1366"
     inkscape:window-height="705"
     inkscape:window-x="0"
     inkscape:window-y="35"
     inkscape:window-maximized="1"
     inkscape:current-layer="layer1" /><defs
     id="defs2" /><g
     inkscape:label="Camada 1"
     inkscape:groupmode="layer"
     id="layer1"
     transform="translate(-0.5327965,-5.4218974)"><path
       style="fill:#000000;stroke-width:0.999999"
       d="m 7.9178601,225.81002 c -2.215878,-0.98485 -4.200684,-4.02757 -4.200684,-6.43966 0,-0.56603 2.091983,-8.17805 4.64885,-16.9156 l 4.6488519,-15.88647 -0.819133,-14.40235 -0.819133,-14.40234 2.790566,-23.80388 c 2.596365,-22.14732 2.868425,-23.97092 3.909363,-26.20427 1.391208,-2.98485 3.968364,-5.60693 6.84409,-6.9634 1.912501,-0.90212 2.723734,-1.03756 6.20101,-1.03527 3.233364,0.002 4.355322,0.16612 5.849914,0.85507 3.420963,1.57694 6.446371,5.01624 7.751137,8.81156 0.435859,1.26782 0.902643,1.58841 5.210836,3.57875 2.602652,1.20239 4.951847,2.13404 5.220435,2.07032 0.268587,-0.0637 4.095354,-3.40106 8.503928,-7.41633 9.219514,-8.39699 12.645004,-11.23055 13.98239,-11.56621 2.285,-0.5735 4.045547,1.68889 5.141517,6.6071 0.7134,3.20141 1.173639,15.69264 0.760804,20.6487 -0.263875,3.16778 -0.420144,3.68204 -1.423852,4.68575 -0.92341,0.92341 -1.476928,1.12816 -3.058534,1.13136 -2.041024,0.004 -4.362751,0.97021 -7.834244,3.25986 -3.504147,2.3112 -7.27192,1.91138 -8.243158,-0.87473 -0.368116,-1.05598 0.249156,-4.81688 1.405064,-8.5607 0.144208,-0.46707 -0.944557,0.26056 -2.763142,1.84664 -3.178673,2.77227 -4.767252,3.40813 -6.902188,2.76271 -0.658491,-0.19907 -6.148065,-2.65383 -12.199051,-5.45502 -6.050985,-2.80119 -11.487279,-5.09868 -12.080653,-5.10553 -2.085054,-0.024 -3.52121,2.19151 -2.702214,4.16874 0.487234,1.17629 0.522114,1.19566 9.782053,5.4343 3.080502,1.41007 5.731069,2.69303 5.890149,2.85103 0.15908,0.158 -0.479345,6.80915 -1.418724,14.78033 l -1.707961,14.49306 3.524728,13.30228 3.52473,13.30227 1.039922,17.098 c 0.571957,9.4039 0.920585,17.73411 0.774734,18.51157 -0.323249,1.72306 -2.35366,4.1239 -4.107257,4.85661 -3.15715,1.31914 -7.037696,0.0476 -8.744882,-2.86554 -0.987,-1.68419 -1.038772,-2.1568 -2.000757,-18.26455 l -0.987538,-16.53563 -3.627165,-13.80157 c -1.994941,-7.59087 -3.717705,-13.8919 -3.828365,-14.00228 -0.110659,-0.11039 -0.094,1.05949 0.03701,2.59974 0.131015,1.54026 0.514772,7.84128 0.852793,14.00229 l 0.614585,11.20182 -5.023573,17.14656 c -2.942807,10.04445 -5.378394,17.64486 -5.880213,18.3496 -1.653084,2.32154 -5.797354,3.36297 -8.5370389,2.14531 z m 60.6772359,-0.47677 c -1.149536,-0.57284 -2.529532,-1.61769 -3.06666,-2.32191 -1.914696,-2.51029 -2.20155,-3.81664 -2.20155,-10.0259 v -5.8138 h 13.602215 13.602215 v 5.45449 c 0,6.74962 -0.382338,8.13092 -2.992091,10.80964 -2.562653,2.63039 -3.702999,2.93396 -11.031657,2.93677 -5.472631,0.002 -5.947968,-0.0603 -7.912472,-1.03929 z m 111.794164,0.46878 c -2.1621,-0.79454 -4.88652,-3.58616 -5.63037,-5.76923 -0.43538,-1.27776 -0.61396,-3.41025 -0.61396,-7.33151 v -5.52965 h 13.63737 13.63736 l -0.13946,6.30103 c -0.15237,6.88492 -0.37015,7.67896 -2.76207,10.07087 -2.41321,2.41322 -3.16551,2.61497 -10.17088,2.72767 -4.77119,0.0768 -6.79748,-0.0427 -7.95799,-0.46918 z M 58.212769,200.14622 c -2.113433,-1.48031 -2.087056,-1.15277 -2.087056,-25.91794 0,-21.75847 0.04207,-23.11769 0.790557,-25.541 1.472215,-4.76648 4.351628,-8.02083 9.038992,-10.21597 l 2.372438,-1.11104 14.502362,-0.12284 14.502362,-0.12284 v -1.19723 c 0,-3.94585 5.000406,-6.18918 7.843066,-3.51863 l 0.92723,0.87109 1.42314,-1.24953 c 1.57401,-1.38201 2.90634,-1.85048 4.43282,-1.55867 0.83317,0.15927 1.10133,-0.0248 1.53687,-1.05496 1.84679,-4.3681 7.37845,-6.16768 11.51216,-3.74516 2.07529,1.2162 3.35406,2.99151 3.84021,5.33134 0.22608,1.08815 0.5622,1.60524 1.10728,1.70346 1.31661,0.23724 2.98302,2.10229 2.98302,3.3386 v 1.12534 h 28.36717 c 26.81005,0 28.35847,-0.0384 28.20861,-0.70011 -0.0872,-0.38506 -2.14933,-11.57096 -4.58247,-24.85755 -2.74845,-15.00839 -4.70492,-24.705354 -5.16592,-25.604172 -0.86806,-1.692448 -2.07333,-2.861726 -4.02042,-3.900343 -1.34141,-0.715538 -3.16463,-0.74691 -43.40707,-0.74691 H 90.331284 l -1.764532,1.000163 c -2.328779,1.319991 -3.888889,3.343961 -4.471452,5.800945 -0.260858,1.100179 -0.531827,2.219479 -0.60215,2.487339 -0.09715,0.37001 -0.465364,0.34599 -1.532814,-0.10002 -0.772722,-0.32286 -1.975289,-0.587026 -2.672375,-0.587026 h -1.267422 l 0.256021,-1.867868 c 0.627695,-4.579526 3.822759,-8.880882 8.196291,-11.03426 L 89.113545,75.750243 124.6281,75.639822 160.14265,75.5294 v -1.160753 c 0,-2.087839 3.29421,-3.633106 5.18967,-2.434401 0.43492,0.275049 0.86368,0.0433 1.63972,-0.886269 1.32474,-1.586818 3.43802,-1.740144 4.91104,-0.356314 l 0.96056,0.902391 1.49101,-1.011831 c 2.2806,-1.547653 3.89852,-1.702047 6.07766,-0.579975 2.12968,1.096603 3.33419,2.990209 3.33419,5.241672 0,1.038344 0.17745,1.506486 0.57106,1.506486 0.73462,0 2.22939,1.89325 2.22939,2.823713 0,0.393516 -0.44895,1.249032 -0.99767,1.901149 l -0.99767,1.185664 0.75833,1.745505 c 0.41969,0.966025 2.86455,13.224023 5.47485,27.449683 3.85234,20.99458 4.83078,25.70424 5.34017,25.7045 1.09496,4e-4 5.36896,2.25626 7.0247,3.70744 2.07628,1.81979 4.00876,5.08305 4.78384,8.07821 0.9084,3.51033 0.92555,47.26687 0.0192,49.01952 -1.34821,2.60712 5.01301,2.40481 -75.61462,2.40481 -65.715306,0 -73.325437,-0.0641 -74.125351,-0.62438 z M 148.35891,188.5868 c 0.94223,-0.94223 0.98198,-1.19324 0.98198,-6.20101 0,-4.68561 -0.0818,-5.30081 -0.80013,-6.01916 -0.77242,-0.77242 -1.33355,-0.80013 -16.20264,-0.80013 -14.86909,0 -15.43021,0.0277 -16.20263,0.80013 -0.72068,0.72068 -0.80014,1.33355 -0.80014,6.17197 0,7.69127 -1.60566,7.03018 17.07491,7.03018 h 14.96668 z M 85.575381,173.77522 c 7.13395,-2.11856 9.758045,-11.26132 4.836796,-16.85215 -2.364353,-2.68605 -4.268535,-3.54164 -7.882164,-3.54164 -2.300147,0 -3.374005,0.19975 -4.600749,0.85581 -6.7019,3.58417 -7.823426,12.62269 -2.167029,17.46436 2.863078,2.45068 6.181895,3.15199 9.813146,2.07362 z m 99.616219,0 c 4.2968,-1.27601 7.34851,-5.43326 7.34851,-10.01064 0,-7.71804 -8.28981,-12.92413 -15.07088,-9.46468 -1.87755,0.95785 -4.38067,3.62187 -5.16346,5.49536 -0.68843,1.64763 -0.72752,5.32178 -0.0796,7.48423 0.73792,2.46296 3.68004,5.39827 6.31951,6.3049 2.68084,0.92083 4.05491,0.96028 6.64595,0.19083 z m -75.0274,-49.38737 c -0.49393,-0.49393 -0.68938,-1.08042 -0.54458,-1.63412 0.27401,-1.04784 0.98658,-1.3652 2.31608,-1.03152 0.78274,0.19645 0.99926,0.50616 0.99926,1.4293 0,0.75569 -0.27762,1.32707 -0.77383,1.59264 -1.02892,0.55066 -1.10322,0.53741 -1.99693,-0.3563 z m -8.16412,-2.45596 c -1.18803,-1.69616 0.492,-3.68641 2.38409,-2.82432 1.0506,0.47869 1.32282,2.31691 0.46948,3.17025 -0.7451,0.7451 -2.21412,0.56701 -2.85357,-0.34593 z M 66.207355,100.27423 c -1.075928,-1.07592 0.185518,-3.0347 1.500964,-2.33069 1.039057,0.55608 1.282773,1.49013 0.573806,2.1991 -0.73562,0.73562 -1.426901,0.77946 -2.07477,0.13159 z m 19.095282,-1.75381 c -0.609944,-0.73494 -0.08975,-1.88733 0.943865,-2.09094 0.997871,-0.19658 1.620676,1.33091 0.854892,2.09669 -0.790325,0.79032 -1.138998,0.78921 -1.798757,-0.006 z M 35.85395,98.00238 c -4.974596,-1.84385 -8.433169,-5.41305 -10.141873,-10.46629 -1.28485,-3.799758 -1.015961,-8.411955 0.704791,-12.089118 1.628658,-3.480361 4.505024,-6.360973 8.00901,-8.020832 2.499951,-1.184241 3.003275,-1.277461 6.897424,-1.277461 3.89415,0 4.397472,0.09322 6.897423,1.277461 3.490341,1.653394 6.374362,4.537415 8.027756,8.027754 1.185481,2.502569 1.27746,3.000691 1.27746,6.918171 0,4.074904 -0.0523,4.327245 -1.506598,7.269832 -1.745904,3.532593 -4.312758,6.084263 -7.818037,7.771803 -3.076913,1.4813 -9.157015,1.77118 -12.347356,0.58868 z m 33.373085,-4.54796 c -2.029399,-0.67935 -1.995521,-3.911323 0.04847,-4.623859 2.375163,-0.827987 4.477614,1.604101 3.144941,3.638021 -0.775315,1.183268 -1.726466,1.476898 -3.193408,0.985838 z M 165.02345,65.468568 c -1.0761,-1.076098 -0.23825,-2.720443 1.38615,-2.720443 1.18551,0 1.91581,1.313813 1.33429,2.400391 -0.47481,0.88719 -1.97662,1.063873 -2.72044,0.320052 z m 8.41856,-1.183002 c -1.15966,-1.159664 -0.12264,-2.909846 1.58105,-2.668331 0.76229,0.108064 0.92217,0.373479 0.92217,1.530955 0,1.196745 -0.14576,1.417262 -1.00298,1.517438 -0.55163,0.06446 -1.22674,-0.106563 -1.50024,-0.380062 z"
       id="path842" /></g></svg>
