<?xml version="1.0" encoding="UTF-8" standalone="no"?>
<!-- Created with Inkscape (http://www.inkscape.org/) -->

<svg
   width="210mm"
   height="297mm"
   viewBox="0 0 210 297"
   version="1.1"
   id="svg5"
   xml:space="preserve"
   inkscape:version="1.2.2 (b0a8486541, 2022-12-01)"
   sodipodi:docname="polishok.svg"
   xmlns:inkscape="http://www.inkscape.org/namespaces/inkscape"
   xmlns:sodipodi="http://sodipodi.sourceforge.net/DTD/sodipodi-0.dtd"
   xmlns="http://www.w3.org/2000/svg"
   xmlns:svg="http://www.w3.org/2000/svg"><sodipodi:namedview
     id="namedview7"
     pagecolor="#ffffff"
     bordercolor="#000000"
     borderopacity="0.25"
     inkscape:showpageshadow="2"
     inkscape:pageopacity="0.0"
     inkscape:pagecheckerboard="0"
     inkscape:deskcolor="#d1d1d1"
     inkscape:document-units="mm"
     showgrid="false"
     inkscape:zoom="0.33449186"
     inkscape:cx="440.96739"
     inkscape:cy="515.70762"
     inkscape:window-width="1366"
     inkscape:window-height="705"
     inkscape:window-x="0"
     inkscape:window-y="35"
     inkscape:window-maximized="1"
     inkscape:current-layer="layer1" /><defs
     id="defs2" /><g
     inkscape:label="Camada 1"
     inkscape:groupmode="layer"
     id="layer1"><path
       style="fill:#000000;stroke-width:0.999998"
       d="m 23.68635,239.62077 -1.390873,-1.24169 -0.140795,-5.59656 -0.140795,-5.59656 2.057317,1.44841 c 4.369133,3.07598 4.217994,3.05307 21.116057,3.20057 l 15.225699,0.1329 v 2.55194 c 0,1.43106 -0.279527,3.09248 -0.636408,3.78262 -1.348584,2.60787 -1.000914,2.56006 -18.616852,2.56006 H 25.077224 Z m 137.75574,0.577 c -1.49616,-1.04796 -2.22179,-2.90238 -2.22179,-5.67799 v -2.55194 l 15.22569,-0.1329 c 16.89807,-0.1475 16.74693,-0.12459 21.11606,-3.20057 l 2.05732,-1.44841 -0.1408,5.59656 -0.14079,5.59656 -1.39088,1.24169 -1.39087,1.24169 h -16.08247 c -13.88426,0 -16.21219,-0.0908 -17.03147,-0.66469 z M 31.239244,226.41368 c -2.435886,-0.59295 -4.502592,-1.85231 -6.194918,-3.77489 -2.976372,-3.38134 -3.00947,-3.68988 -2.871097,-26.76489 l 0.122248,-20.38612 1.277681,-2.31657 c 1.308032,-2.37159 3.768799,-4.48667 6.310016,-5.42359 1.018555,-0.37552 20.873529,-0.50803 79.773436,-0.53236 86.00403,-0.0355 80.18633,-0.20859 83.58891,2.48631 0.86921,0.68843 2.14555,2.27195 2.83632,3.51894 l 1.25594,2.26727 0.12225,20.38612 c 0.13839,23.07821 0.10566,23.38312 -2.87361,26.76775 -0.93674,1.06419 -2.61741,2.38904 -3.73484,2.94413 l -2.03167,1.00924 h -22.35942 -22.35942 l -3.46661,-6.78563 c -1.90664,-3.7321 -3.81187,-7.0381 -4.23386,-7.34667 -1.14242,-0.83536 -52.040665,-0.82428 -53.183764,0.0116 -0.430689,0.31493 -2.335928,3.62093 -4.233864,7.34667 l -3.450786,6.77405 -21.507631,0.0648 c -11.829197,0.0356 -22.082587,-0.0751 -22.785311,-0.24618 z m 20.89784,-6.3128 c 5.972626,-3.09319 7.552125,-10.44754 3.30858,-15.40517 -2.47221,-2.88822 -4.22041,-3.4428 -10.818759,-3.43201 -6.663493,0.0109 -8.261815,0.5102 -10.681213,3.33672 -3.410857,3.98482 -3.331138,9.52291 0.189919,13.19364 2.763912,2.88141 4.811765,3.47966 11.371071,3.32192 3.993383,-0.096 5.217713,-0.28347 6.630402,-1.0151 z m -12.379967,-4.53757 c -2.1568,-0.95204 -2.981256,-2.22223 -2.981256,-4.59306 0,-1.85592 0.173074,-2.27433 1.390874,-3.36243 1.370893,-1.22489 1.463371,-1.24275 6.437444,-1.24275 4.372684,0 5.188718,0.11182 6.111089,0.83736 3.27936,2.57954 2.249127,7.37061 -1.836901,8.54247 -2.07012,0.59371 -7.614924,0.48331 -9.12125,-0.18159 z m 142.679963,4.54955 c 6.09814,-3.15885 7.65039,-10.37214 3.32056,-15.43058 -2.49307,-2.91259 -4.04993,-3.40763 -10.75129,-3.41858 -4.94348,-0.008 -5.97137,0.11158 -7.55847,0.87988 -5.89063,2.8516 -7.51953,10.60112 -3.227,15.35244 2.84805,3.15245 4.86732,3.78209 11.60927,3.61996 3.97102,-0.0955 5.22118,-0.2853 6.60693,-1.00312 z m -11.87979,-4.39279 c -3.89465,-1.16611 -4.82695,-6.01024 -1.6393,-8.51764 0.92237,-0.72554 1.7384,-0.83736 6.11109,-0.83736 4.91791,0 5.08038,0.0302 6.37284,1.18503 2.73814,2.44652 1.92693,6.5565 -1.58361,8.0233 -1.55148,0.64824 -7.28267,0.73901 -9.26102,0.14667 z M 57.078749,195.01288 c 1.157622,-1.04763 0.945374,-2.04326 -1.484013,-6.96124 l -2.209021,-4.47188 -9.010577,-3.7085 c -10.984941,-4.52109 -10.894133,-4.49577 -12.034253,-3.35565 -0.799146,0.79914 -0.888694,1.38796 -0.888694,5.84353 0,5.75432 0.455152,7.63117 2.40228,9.90595 2.704761,3.1599 3.867672,3.45192 13.748144,3.4523 7.495558,2.9e-4 8.8049,-0.097 9.476134,-0.70451 z m -18.294034,-5.07057 c -0.521942,-0.36558 -1.235368,-1.2185 -1.585392,-1.89537 -0.679543,-1.31409 -0.883613,-5.53191 -0.267649,-5.53191 0.202817,0 3.125511,1.13117 6.494879,2.5137 4.854758,1.99203 6.28033,2.76541 6.869192,3.72657 0.408688,0.66708 0.744079,1.3566 0.745314,1.53229 0.0013,0.17568 -2.542419,0.31942 -5.652559,0.31942 -4.43495,0 -5.859516,-0.14339 -6.603785,-0.6647 z m 105.740045,5.50439 c 1.79644,-0.68936 1.50241,-4.19128 -0.39023,-4.64771 -0.48689,-0.11742 -16.19675,-0.16074 -34.91081,-0.0963 l -34.025576,0.11722 -0.834687,1.11802 c -0.712891,0.95489 -0.756899,1.26562 -0.301588,2.12947 0.293202,0.5563 0.743972,1.15225 1.001706,1.32435 0.572328,0.38215 68.468525,0.43582 69.461185,0.0549 z m 37.98408,-0.6182 c 2.25029,-1.08934 4.51609,-3.6557 5.17795,-5.86478 0.27185,-0.90736 0.49427,-3.87942 0.49427,-6.60458 0,-4.45557 -0.0895,-5.04439 -0.88869,-5.84353 -1.14012,-1.14012 -1.04931,-1.16544 -12.03425,3.35565 l -9.01058,3.7085 -2.20505,4.47188 c -2.42096,4.90977 -2.60744,5.73203 -1.56198,6.88724 0.63924,0.70635 1.51866,0.77885 9.44814,0.77885 7.99555,0 8.90039,-0.076 10.58019,-0.88923 z m -13.43779,-5.47445 c 0.24023,-0.68913 0.66148,-1.42237 0.93611,-1.62944 0.62005,-0.4675 12.28638,-5.22349 12.79338,-5.21544 0.20297,0.003 0.2881,1.27687 0.18918,2.83033 -0.16137,2.53432 -0.32029,2.94996 -1.54696,4.04599 -1.36125,1.21628 -1.39163,1.22152 -7.08781,1.22152 h -5.72068 z m -85.346646,32.55614 2.437985,-4.89778 h 23.654241 23.65424 l 2.43798,4.89778 2.43798,4.89778 H 109.81663 81.286422 Z M 18.67538,161.79442 c -1.735944,-0.57191 -2.577318,-1.25077 -3.214562,-2.59366 -0.943863,-1.98904 -0.518958,-4.01848 1.132253,-5.40788 1.228822,-1.03399 1.553728,-1.09041 6.279159,-1.09041 5.461924,0 6.350228,0.3025 7.517659,2.56006 0.374571,0.72435 0.636408,2.37835 0.636408,4.02014 v 2.78946 l -5.856038,-0.0336 c -3.220821,-0.0185 -6.143516,-0.1283 -6.494879,-0.24406 z m 19.854061,-1.10644 c 1.713195,-3.33652 17.799161,-32.98375 18.36413,-33.846 0.344446,-0.5257 1.325134,-1.3904 2.179302,-1.92157 1.522595,-0.94684 1.836926,-0.96834 16.037661,-1.09713 l 14.484622,-0.13136 0.719318,3.47869 c 2.200465,10.64169 10.489696,19.23268 21.205726,21.9777 3.61545,0.92613 10.01971,0.92511 13.6286,-0.002 10.64825,-2.73599 18.43373,-10.76506 21.02946,-21.6874 l 0.90407,-3.80414 5.96251,0.15431 c 7.32125,0.18947 8.29642,0.63842 10.80245,4.97323 1.5046,2.60258 15.62036,28.69594 17.26015,31.90583 l 0.70709,1.38412 h -71.9979 -71.997908 z m 150.396939,1.13667 c -0.56813,-0.56984 -0.34005,-5.29155 0.31699,-6.56212 1.16743,-2.25756 2.05573,-2.56006 7.51766,-2.56006 4.72543,0 5.05033,0.0564 6.27915,1.09041 1.6772,1.41127 2.14687,3.64443 1.15415,5.48779 -1.2493,2.31981 -2.01472,2.55691 -8.77307,2.71756 -3.3965,0.0807 -6.3192,0.003 -6.49488,-0.17358 z m -73.57313,-17.27664 c -1.52257,-0.15584 -3.85035,-0.69097 -5.17283,-1.18917 -15.664727,-5.90113 -20.407313,-25.63768 -9.09632,-37.85489 4.16069,-4.49405 9.41065,-7.096051 15.32642,-7.596111 2.87874,-0.24335 8.73828,0.45562 8.73828,1.04236 0,0.13188 -3.60292,3.895311 -8.00648,8.363181 -4.51787,4.58383 -8.3685,8.86568 -8.8373,9.82697 -1.17317,2.4056 -1.12101,7.05546 0.10511,9.36966 1.88755,3.5626 5.48129,5.73086 9.49848,5.73086 3.99758,0 5.39121,-0.95662 14.28136,-9.80291 4.45825,-4.43626 8.22749,-8.06592 8.37611,-8.06592 0.48728,0 1.19257,4.24135 1.19257,7.17167 0,9.42707 -6.3097,18.45645 -15.22939,21.79374 -2.86845,1.07323 -7.55655,1.58103 -11.17601,1.21056 z m -1.06474,-16.06641 c -3.79608,-2.35766 -5.12041,-6.54292 -3.22343,-10.18701 0.45241,-0.86908 5.71609,-6.45911 11.69707,-12.42229 l 10.8745,-10.842161 1.09247,1.02632 1.09246,1.02631 4.45536,-4.44019 c 4.19514,-4.18087 4.49769,-4.39787 5.18015,-3.71541 0.68246,0.68246 1.16628,0.28932 8.28395,-6.73144 9.16667,-9.04187 10.39095,-9.774223 16.33954,-9.774223 3.23501,0 4.19851,0.171862 6.17546,1.101522 2.9042,1.365698 6.04631,4.502755 7.51333,7.501244 0.98912,2.021677 1.09,2.641247 0.90648,5.566867 -0.18714,2.98324 -0.45512,3.79134 -2.8571,8.61568 -2.30759,4.63474 -2.62509,5.560151 -2.45345,7.151011 0.41342,3.83178 2.44486,4.77402 10.29271,4.77402 5.19539,0 5.84717,0.0839 6.61503,0.85178 1.09749,1.09748 1.08195,2.32521 -0.0437,3.45082 -0.84932,0.84933 -1.23881,0.88694 -7.55961,0.72997 -5.57255,-0.13838 -6.97808,-0.30831 -8.58067,-1.03737 -3.90057,-1.77447 -6.27229,-5.9553 -5.83208,-10.28069 0.18707,-1.838041 0.89864,-3.727751 2.8652,-7.609091 3.15881,-6.23443 3.37886,-7.94673 1.42701,-11.10378 -1.87685,-3.035739 -4.25941,-4.523377 -7.58348,-4.735038 -4.56558,-0.290714 -5.18143,0.08938 -13.55168,8.363858 -6.85126,6.77288 -7.49658,7.53478 -6.92077,8.17104 0.34926,0.38594 0.63503,0.88186 0.63503,1.10205 0,0.22019 -1.91228,2.30545 -4.2495,4.6339 l -4.24949,4.233551 0.93071,0.9907 0.93071,0.9907 -11.05513,11.0864 c -6.08032,6.09752 -11.57265,11.36118 -12.20519,11.69703 -1.65764,0.88015 -5.38609,0.7802 -6.94192,-0.18608 z m -82.562245,-4.10077 c -0.351205,-0.35121 -1.036109,-1.70112 -1.52201,-2.9998 -0.485901,-1.29869 -1.288955,-2.90972 -1.784565,-3.58007 -0.959232,-1.29743 -3.81356,-2.99656 -6.446903,-3.83772 -1.644931,-0.52544 -2.445619,-1.47631 -2.445619,-2.90434 0,-1.11954 1.000901,-1.86431 4.395794,-3.27092 3.365532,-1.39444 4.672095,-2.79146 6.281855,-6.71676 2.014142,-4.911371 4.503158,-4.861951 6.368694,0.12645 1.29154,3.45355 3.342713,5.55671 6.590756,6.75781 2.992805,1.10672 4.045989,1.9415 4.045989,3.20696 0,1.39011 -0.866936,2.26636 -2.967299,2.99919 -4.251692,1.48341 -5.404981,2.51057 -7.306518,6.50741 -0.971182,2.04132 -1.97957,3.8523 -2.240863,4.0244 -0.792428,0.52192 -2.292738,0.36396 -2.969311,-0.31261 z m 3.841556,-15.28223 -2.197405,-2.19992 -2.212026,2.21203 -2.212027,2.21202 2.211174,2.26997 2.211175,2.26997 2.198257,-2.28208 2.198257,-2.28207 z M 61.331038,96.590979 c -0.441545,-0.87841 -1.03289,-2.30863 -1.314104,-3.17826 -0.753593,-2.33045 -3.279704,-4.5699 -6.835201,-6.05953 -3.377827,-1.41519 -4.132659,-2.36704 -3.261992,-4.11342 0.338994,-0.67996 1.491245,-1.40748 3.477119,-2.195425 3.705893,-1.470401 5.729113,-3.508764 7.033481,-7.086115 1.947995,-5.342563 4.664183,-5.141635 6.649699,0.491906 1.021072,2.897112 3.526404,5.402445 6.423516,6.423517 5.789722,2.040557 5.81422,4.476747 0.06872,6.833597 -3.491191,1.43211 -5.156908,3.11486 -6.591454,6.65884 -1.427813,3.52736 -1.691241,3.82199 -3.417153,3.82199 -1.22559,0 -1.544495,-0.22813 -2.232633,-1.5971 z m 4.660265,-14.58686 -2.300691,-2.342421 -2.406742,2.342421 -2.406742,2.34241 1.344474,1.0603 c 0.739458,0.58316 1.785436,1.64136 2.324396,2.35156 l 0.979926,1.29125 2.383036,-2.35155 2.383033,-2.35156 z m -46.169569,7.55961 c -0.566838,-0.52705 -1.367105,-1.91652 -1.778373,-3.08773 -1.822646,-5.190524 -3.673011,-7.124183 -8.8227179,-9.219872 -3.563729,-1.45027 -4.599754,-2.251417 -4.599754,-3.55694 0,-1.253133 1.029046,-2.102639 3.833044,-3.16428 5.4703989,-2.071187 7.2787339,-3.823462 9.4980669,-9.203616 0.937045,-2.271606 1.724117,-3.545439 2.398333,-3.881572 1.783637,-0.88924 2.656614,-0.111829 4.489909,3.998395 2.531288,5.675118 3.519666,6.674534 8.749623,8.847333 3.836365,1.593827 4.234262,1.941955 4.244209,3.713342 0.0077,1.363819 -0.772532,1.926153 -4.591857,3.309647 -4.159305,1.506648 -6.486913,3.868145 -8.427666,8.550373 -1.976704,4.76895 -3.01293,5.53581 -4.992817,3.69492 z m 4.347377,-12.37774 c 0.843434,-0.893156 2.160258,-2.013181 2.926276,-2.488943 l 1.392761,-0.865022 -1.605708,-1.18475 c -1.72599,-1.273499 -3.839765,-3.449697 -4.905281,-5.050141 l -0.659991,-0.99133 -1.311748,1.906559 c -0.721461,1.048608 -2.130385,2.534982 -3.130942,3.303054 -1.000556,0.768073 -1.975624,1.528406 -2.166817,1.689631 -0.191193,0.161224 0.579409,0.973639 1.712448,1.805367 1.13304,0.831728 2.69995,2.403245 3.482021,3.492261 l 1.42195,1.980028 0.655758,-0.986396 c 0.360667,-0.542518 1.34584,-1.717161 2.189273,-2.610318 z"
       id="path234" /><path
       style="fill:#ffff00;fill-opacity:0.721957;fill-rule:evenodd;stroke-width:20;stroke-linecap:round;stroke-linejoin:bevel"
       d="m 177.94455,550.1615 c 18.03766,-33.4272 34.62333,-63.76714 36.85703,-67.42209 7.7575,-12.69338 12.58626,-13.57614 70.81656,-12.94611 l 52.28529,0.56571 2.81003,12.37743 c 7.09956,31.2717 30.92396,60.35115 61.3226,74.84876 15.61687,7.44794 17.8744,7.92473 40.8413,8.62561 20.59674,0.62855 26.37325,0.0465 37.81173,-3.80974 36.42122,-12.27873 63.18175,-41.80717 72.87732,-80.41521 l 2.91982,-11.62685 h 23.48801 c 23.2962,0 23.5392,0.0518 29.75335,6.34192 4.96321,5.02391 68.74469,118.99154 73.43833,131.2229 0.99775,2.60016 -35.88935,3.01439 -268.43021,3.01439 H 145.14879 Z"
       id="path303"
       transform="scale(0.26458333)" /><path
       style="fill:#ffff11;fill-opacity:0.72195703;fill-rule:evenodd;stroke-width:20;stroke-linecap:round;stroke-linejoin:bevel"
       d="m 122.61044,854.77457 c -2.32537,-0.49173 -6.42457,-1.3649 -9.10934,-1.94037 -7.78556,-1.66881 -23.33469,-17.37187 -25.725858,-25.98052 -3.062551,-11.02575 -2.875379,-161.94762 0.208305,-167.96155 3.602468,-7.02568 14.844933,-18.32204 21.943053,-22.04824 5.67741,-2.98039 37.0202,-3.34912 299.12719,-3.51909 161.0319,-0.10443 297.34404,0.58791 302.91586,1.53852 11.89841,2.03 22.93569,10.73859 29.21846,23.05381 4.03226,7.90389 4.19081,11.80388 3.5749,87.93004 -0.70486,87.12184 -0.50585,85.69609 -13.66808,97.91525 -13.54361,12.57317 -12.10647,12.4001 -102.61145,12.35848 l -83.07842,-0.0382 -13.82158,-26.91495 -13.82158,-26.91494 -28.45788,-1.70527 c -43.6701,-2.61682 -173.2412,-0.2982 -176.61592,3.16046 -1.48801,1.52501 -8.55703,13.95038 -15.70892,27.61194 l -13.00345,24.83918 -78.56868,-0.24522 c -43.21276,-0.13487 -80.47124,-0.64755 -82.79661,-1.13931 z m 76.52225,-22.58545 c 3.71862,-1.92897 9.42635,-7.0015 12.68383,-11.27229 5.22976,-6.85657 5.92271,-9.55933 5.92271,-23.10091 0,-16.9711 -3.11246,-23.36926 -15.45788,-31.77617 -12.07168,-8.2205 -52.93132,-9.03296 -66.17201,-1.31577 -7.02406,4.09389 -16.22092,18.1882 -17.97728,27.5504 -2.99311,15.95467 9.11439,35.71894 25.61811,41.81897 11.37836,4.20561 45.89178,3.01893 55.38252,-1.90423 z m 492.55573,0 c 11.74543,-6.09275 18.32297,-17.00293 19.27622,-31.97353 0.94226,-14.79789 -1.69488,-21.75418 -11.93828,-31.49097 -5.29485,-5.03297 -9.25478,-6.42854 -23.62403,-8.32566 -20.07581,-2.65053 -40.91098,-0.0219 -49.36721,6.22841 -6.27685,4.63943 -13.0196,16.06328 -14.99619,25.40715 -3.34976,15.83531 8.73272,35.94751 25.26697,42.05883 11.37835,4.20561 45.89177,3.01893 55.38252,-1.90423 z m -476.23606,-93.5817 c 5.44518,-2.08951 3.8969,-11.5443 -4.82773,-29.48127 l -8.17158,-16.79996 -35.83545,-14.26932 c -19.7095,-7.84813 -37.41433,-14.26932 -39.34408,-14.26932 -7.63269,0 -10.58581,9.39015 -9.49737,30.19914 1.32117,25.2582 7.7476,37.52508 22.80414,43.52894 5.70744,2.27586 69.36733,3.20416 74.87207,1.09179 z M 549.633,730.3777 v -8.45589 l -22.28009,-1.81145 c -12.37275,-1.00595 -71.96364,-1.00595 -134.01093,0 -100.92447,1.63625 -111.94615,2.15337 -113.95681,5.34673 -1.58186,2.51233 -1.50547,5.11659 0.26401,9.00017 l 2.48996,5.46488 133.74693,-0.54428 133.74693,-0.54427 z m 141.96454,6.04443 c 4.02006,-1.90765 9.87156,-6.82421 13.00332,-10.92569 5.2805,-6.91558 5.74587,-9.20377 6.40672,-31.50214 0.75035,-25.31777 -0.62024,-30.20675 -8.46816,-30.20675 -4.29485,0 -70.85232,26.53316 -75.00087,29.89912 -1.33398,1.08234 -5.88485,10.02068 -10.11305,19.86297 -11.44161,26.63343 -11.79523,26.34094 31.84761,26.34094 28.08021,0 36.46285,-0.68695 42.32443,-3.46845 z"
       id="path305"
       transform="scale(0.26458333)" /><path
       style="fill:#ffff11;fill-opacity:0.721957;fill-rule:evenodd;stroke-width:20;stroke-linecap:round;stroke-linejoin:bevel"
       d="m 279.57294,611.46699 c 74.70252,-0.30791 196.94302,-0.30791 271.64554,0 74.70253,0.30791 13.58228,0.55983 -135.82277,0.55983 -149.40505,0 -210.52529,-0.25192 -135.82277,-0.55983 z"
       id="path1689"
       transform="scale(0.26458333)" /><path
       style="fill:#ffff11;fill-opacity:0.721957;fill-rule:evenodd;stroke-width:20;stroke-linecap:round;stroke-linejoin:bevel"
       d="m 159.30334,587.193 c 47.26279,-88.60413 58.90862,-108.35064 66.09766,-112.07426 6.22616,-3.22489 13.763,-3.69659 59.11029,-3.69946 l 51.97424,-0.003 3.67127,13.20484 c 8.7896,31.61443 30.90207,58.54048 59.80687,72.826 l 16.26975,8.04096 h 30.87189 30.87189 l 16.80213,-8.26889 c 28.92926,-14.23702 50.21669,-40.36238 59.14814,-72.59058 l 3.66158,-13.21233 h 21.44777 c 15.68581,0 22.66945,0.8557 25.99524,3.18516 6.31228,4.42129 78.66808,130.86995 76.26234,133.27569 -0.51188,0.51189 -121.10346,1.56816 -267.98127,2.34726 l -267.05055,1.41655 z"
       id="path1691"
       transform="scale(0.26458333)" /><path
       style="fill:#ffff11;fill-opacity:0.721957;fill-rule:evenodd;stroke-width:20;stroke-linecap:round;stroke-linejoin:bevel"
       d="m 149.0351,609.69657 c 0,-2.24648 48.14246,-90.95051 60.04855,-110.64136 16.25835,-26.88885 12.2549,-25.4726 73.69928,-26.0717 l 52.35986,-0.51053 5.91821,17.03098 c 10.79292,31.05906 30.803,54.3961 59.62989,69.5442 l 14.26611,7.49663 h 32.14831 32.14831 l 14.85174,-7.80436 c 28.636,-15.0478 48.44761,-38.19532 58.7168,-68.60366 l 5.96523,-17.66379 21.84747,0.51943 c 19.75377,0.46965 22.22583,0.97611 25.79553,5.28493 9.23622,11.14855 74.68996,125.54562 72.87245,127.36313 -2.43253,2.43251 -530.26774,6.47 -530.26774,4.0561 z"
       id="path1693"
       transform="scale(0.26458333)" /><path
       style="fill:#ffff11;fill-opacity:0.721957;fill-rule:evenodd;stroke-width:20;stroke-linecap:round;stroke-linejoin:bevel"
       d="m 151.14908,607.41726 c 0,-4.94003 60.81376,-113.59007 68.64501,-122.64136 8.5781,-9.91451 15.66118,-11.04167 70.09097,-11.15386 l 44.66418,-0.0921 4.79871,13.21233 c 11.30825,31.1351 28.5734,52.64671 55.60613,69.2828 l 17.09392,10.51969 h 35.06614 35.06615 l 15.75757,-9.66132 c 28.55673,-17.50875 44.69789,-36.93299 55.02433,-66.21619 l 5.67057,-16.08032 18.75383,-0.53749 c 11.94302,-0.34229 20.67314,0.43308 24.03875,2.13503 8.12449,4.10844 78.73485,124.36766 75.13773,127.96995 -3.418,3.4229 -525.41399,6.66449 -525.41399,3.26281 z"
       id="path1695"
       transform="scale(0.26458333)" /><path
       style="fill:#ffff11;fill-opacity:0.721957;fill-rule:evenodd;stroke-width:20;stroke-linecap:round;stroke-linejoin:bevel"
       d="m 151.96131,605.47619 c 2.52807,-6.67472 43.25983,-80.75609 56.27488,-102.3506 17.58274,-29.17318 15.50658,-28.37599 76.26022,-29.28182 l 49.8454,-0.74318 5.71011,15.65615 c 11.0284,30.23795 29.63623,52.37141 58.39093,69.45427 l 14.02782,8.33378 h 34.8057 34.80568 l 13.69273,-7.9274 c 7.53101,-4.36007 20.43062,-14.58642 28.66579,-22.72521 14.89523,-14.7209 22.64099,-27.59904 31.4692,-52.32084 l 3.5858,-10.04137 17.26544,0.0312 c 9.57767,0.0173 19.59701,1.2109 22.50176,2.68066 2.87999,1.45723 9.17944,8.34005 13.99881,15.29515 10.31446,14.88538 41.2818,67.55657 55.07374,93.67282 l 9.6798,18.32955 -13.45572,1.34085 c -7.40062,0.73747 -126.10794,2.08471 -263.79403,2.99387 -246.17069,1.62549 -250.31278,1.58557 -248.80406,-2.39785 z"
       id="path1697"
       transform="scale(0.26458333)" /><path
       style="fill:#ffff11;fill-opacity:0.721957;fill-rule:evenodd;stroke-width:20;stroke-linecap:round;stroke-linejoin:bevel"
       d="m 152.43324,607.07786 c -1.17726,-1.90485 35.89405,-71.01232 55.61439,-103.67504 17.80347,-29.48782 15.64452,-28.65246 76.39235,-29.55824 l 49.78897,-0.74238 6.05489,15.54019 c 12.51447,32.11898 29.67585,52.64709 58.15901,69.56862 l 14.02782,8.33378 h 34.63464 34.63463 l 14.02782,-8.33378 c 28.868,-17.15017 45.45594,-36.77842 57.30512,-67.80827 l 6.59219,-17.2632 20.06727,0.72371 20.06727,0.72371 6.72962,7.78777 c 12.69255,14.68828 72.81513,118.99627 70.13413,121.67726 -3.55133,3.55135 -522.05569,6.54416 -524.23012,3.02587 z"
       id="path1699"
       transform="scale(0.26458333)" /><path
       style="fill:#ffff11;fill-opacity:0.721957;fill-rule:evenodd;stroke-width:20;stroke-linecap:round;stroke-linejoin:bevel"
       d="m 152.43324,607.07786 c -1.17726,-1.90485 35.89405,-71.01232 55.61439,-103.67504 17.80057,-29.483 15.6568,-28.65263 76.30745,-29.55703 l 49.70406,-0.74116 6.99526,17.109 c 13.07172,31.97082 28.99534,50.63259 58.5282,68.59239 l 12.72553,7.73877 h 34.7159 34.71591 l 14.20064,-8.43646 c 28.50894,-16.93684 45.64573,-37.6582 58.10166,-70.255 l 5.47327,-14.32336 h 19.16826 19.16826 l 7.60009,8.0442 c 12.19463,12.90724 74.17699,119.51208 71.21124,122.47782 -3.55133,3.55135 -522.05569,6.54416 -524.23012,3.02587 z"
       id="path1701"
       transform="scale(0.26458333)" /><path
       style="fill:#ffff11;fill-opacity:0.721957;fill-rule:evenodd;stroke-width:20;stroke-linecap:round;stroke-linejoin:bevel"
       d="m 152.5661,607.42264 c -2.09534,-2.09534 52.62268,-103.04727 64.88932,-119.71745 9.01687,-12.2538 12.54445,-12.97867 67.1787,-13.80417 l 49.9831,-0.75523 4.4388,11.86376 c 12.26575,32.78316 26.37262,50.9135 53.54132,68.81201 l 19.31296,12.72323 h 34.78046 c 34.63537,0 34.82561,-0.026 45.60763,-6.22268 29.25881,-16.81581 48.40083,-38.84063 60.08984,-69.13939 l 6.40248,-16.59576 20.03243,-0.6023 20.03244,-0.60229 7.26775,8.49075 c 13.92998,16.27405 73.34286,119.37606 70.45498,122.26393 -3.3052,3.3052 -520.7482,6.54961 -524.01221,3.28559 z"
       id="path1703"
       transform="scale(0.26458333)" /><path
       style="fill:#ffff11;fill-opacity:0.721957;fill-rule:evenodd;stroke-width:20;stroke-linecap:round;stroke-linejoin:bevel"
       d="m 152.63318,607.40136 c -2.6815,-4.33875 62.07353,-119.52416 70.89814,-126.11267 8.314,-6.20731 20.27656,-7.56715 67.44367,-7.66665 l 43.64014,-0.0921 5.68655,14.26932 c 12.78473,32.0809 27.66781,50.38974 55.41095,68.16529 l 16.51212,10.57964 35.03777,2.8e-4 35.0378,2.9e-4 19.31296,-12.72323 c 27.10819,-17.85866 40.35059,-34.687 52.26883,-66.42295 l 4.81134,-12.81165 20.08105,-0.6023 20.08108,-0.60229 7.09829,8.34557 c 3.90409,4.59007 12.90849,17.70349 20.00982,29.14094 13.80337,22.23179 51.56468,89.41287 51.56468,91.73862 0,0.76852 -5.4699,2.00865 -12.15534,2.75586 -21.49327,2.40221 -511.31151,4.34911 -512.73985,2.038 z"
       id="path1705"
       transform="scale(0.26458333)" /><path
       style="fill:#ffff11;fill-opacity:1;fill-rule:evenodd;stroke-width:20;stroke-linecap:round;stroke-linejoin:bevel"
       d="m 152.66057,607.51711 c -2.18981,-2.18981 40.40209,-82.08065 60.55495,-113.58464 12.17303,-19.02951 13.25203,-19.32041 71.71201,-19.33391 l 50.27652,-0.0116 6.84289,16.91178 c 12.07795,29.84995 28.27005,48.8489 55.98348,65.68799 l 15.40128,9.35806 34.27708,-2.9e-4 34.27708,-2.8e-4 16.33636,-10.46703 c 28.1446,-18.03278 41.24924,-33.76842 53.78098,-64.57845 l 6.87872,-16.91178 19.93684,-0.6023 19.93682,-0.60229 7.75927,9.05818 c 15.04551,17.56416 73.07322,118.5857 69.92577,121.7351 -3.36555,3.36765 -520.55507,6.66644 -523.88005,3.34146 z"
       id="path1707"
       transform="scale(0.26458333)" /><path
       style="fill:#ffff11;fill-opacity:1;fill-rule:evenodd;stroke-width:20;stroke-linecap:round;stroke-linejoin:bevel"
       d="m 152.55978,607.41632 c -2.27676,-2.27676 45.7028,-91.72297 62.46099,-116.44332 10.76846,-15.88478 12.80266,-16.36126 69.90676,-16.37444 l 50.27652,-0.0116 6.84289,16.91178 c 11.58967,28.64321 27.39567,47.16501 55.75018,65.32925 l 15.16797,9.7168 h 33.95408 33.95407 l 14.77878,-8.85207 c 27.46453,-16.45047 44.07361,-35.9414 56.14527,-65.8871 l 6.94116,-17.21866 20.10977,-0.60292 20.10976,-0.60291 6.28112,6.72079 c 12.65443,13.54023 74.3964,120.97769 71.30186,124.07272 -3.5297,3.53027 -520.49432,6.72855 -523.98118,3.24168 z"
       id="path1916"
       transform="scale(0.26458333)" /><path
       style="fill:#ffff11;fill-opacity:1;fill-rule:evenodd;stroke-width:20;stroke-linecap:round;stroke-linejoin:bevel"
       d="m 152.57101,607.42756 c -2.8991,-2.89911 55.32031,-109.01875 67.18221,-122.45661 8.81454,-9.98563 19.99654,-11.66555 72.93527,-10.95733 l 42.85666,0.57334 5.6093,13.74082 c 12.96509,31.75991 27.84953,49.96408 55.19517,67.50558 l 16.69816,10.71143 h 33.78905 33.78903 l 13.33873,-7.9274 c 7.33631,-4.36007 19.80095,-14.01621 27.6992,-21.45809 13.7375,-12.94372 23.86996,-29.6439 35.0785,-57.8159 2.2959,-5.7706 2.46065,-5.81343 22.35867,-5.81343 18.02078,0 20.50871,0.48048 24.62912,4.75644 14.39948,14.94307 76.36652,122.32926 72.70541,125.99531 -3.39958,3.40418 -520.50092,6.5094 -523.86448,3.14584 z"
       id="path1918"
       transform="scale(0.26458333)" /><path
       style="fill:#ffff11;fill-opacity:1;fill-rule:evenodd;stroke-width:20;stroke-linecap:round;stroke-linejoin:bevel"
       d="m 152.56187,607.41841 c -2.78538,-2.78538 53.91851,-106.65198 66.66976,-122.12145 8.29302,-10.06087 18.68223,-11.76699 71.65369,-11.76699 h 44.39935 l 2.39315,6.87041 c 11.41333,32.76614 33.73793,60.61331 61.98606,77.31991 l 14.92076,8.8245 h 32.69173 32.69171 l 13.69273,-7.9274 c 21.82833,-12.63751 42.07295,-34.15375 52.21219,-55.4918 4.69605,-9.88282 9.58315,-20.58481 10.86025,-23.78219 2.30463,-5.76996 2.47186,-5.81343 22.36771,-5.81343 18.02078,0 20.50871,0.48048 24.62912,4.75644 14.71695,15.27253 76.44499,122.25194 72.70194,125.99805 -3.49794,3.50082 -520.41095,6.59316 -523.87015,3.13395 z"
       id="path1920"
       transform="scale(0.26458333)" /><path
       style="mix-blend-mode:normal;fill:#ffff11;fill-opacity:1;fill-rule:evenodd;stroke-width:20;stroke-linecap:round;stroke-linejoin:bevel"
       d="m 152.57469,607.43123 c -2.70385,-2.70385 49.1795,-98.6223 64.17666,-118.64552 10.24553,-13.67915 15.99362,-14.87718 72.37979,-15.08561 l 46.02424,-0.17013 2.32199,5.81343 c 1.27709,3.19738 6.11235,13.76877 10.74501,23.49198 10.24898,21.51096 29.29121,41.83539 51.4415,54.90531 l 14.92076,8.8041 h 32.69173 32.69171 l 13.66032,-7.9274 c 7.51317,-4.36007 20.424,-14.63049 28.69076,-22.82315 14.47175,-14.34205 23.06296,-28.2982 33.44899,-54.33687 l 3.162,-7.9274 h 18.96073 c 10.4284,0 20.51901,0.59797 22.42359,1.32883 9.04546,3.47106 80.52413,125.01177 76.11711,129.42776 -0.75018,0.7517 -31.96496,1.97954 -69.3662,2.72852 -91.59507,1.83425 -452.74191,2.16494 -454.49069,0.41615 z"
       id="path1922"
       transform="scale(0.26458333)" /><path
       style="fill:#ffff11;fill-opacity:1;fill-rule:evenodd;stroke-width:20;stroke-linecap:round;stroke-linejoin:bevel"
       d="m 188.86451,854.16803 -75.38213,-1.17989 -7.98303,-6.46428 C 89.169554,833.30074 88.921377,832.53218 87.57334,791.01025 86.905899,770.45189 86.820555,732.25073 87.383686,706.1188 l 1.023875,-47.51261 10.905868,-10.90587 10.905871,-10.90587 38.96215,-1.47646 c 21.42919,-0.81205 157.3975,-1.1598 302.1518,-0.77277 258.73591,0.69178 263.31106,0.77524 270.36443,4.93164 3.94612,2.32537 10.12949,7.88216 13.74083,12.34842 l 6.56604,8.12047 0.66394,72.21051 c 0.84943,92.38534 0.45915,96.36451 -10.63113,108.39607 -5.28385,5.73232 -11.42989,9.98662 -16.1872,11.20486 -9.64807,2.47069 -145.90585,5.41158 -160.12443,3.45601 l -10.53917,-1.44949 -12.98988,-26.07818 -12.98986,-26.07818 -20.21189,-1.51535 c -23.65975,-1.77384 -180.40301,-0.18193 -185.09584,1.87986 -1.7583,0.7725 -9.42416,13.04283 -17.03525,27.2674 l -13.83834,25.86285 -9.38943,0.12282 c -5.16419,0.0677 -43.31139,-0.40803 -84.77156,-1.05698 z m 12.38389,-22.22365 c 13.04156,-7.81286 16.49083,-14.98568 16.49083,-34.29302 0,-19.95008 -3.08923,-25.99099 -17.03163,-33.30503 -7.08721,-3.71788 -12.15035,-4.37301 -33.7967,-4.37301 -29.43765,0 -33.2845,1.54857 -43.37601,17.46124 -12.70824,20.03881 -4.30338,46.7497 17.86813,56.78547 10.18195,4.60879 50.9407,3.05892 59.84538,-2.27565 z m 493.19057,-0.22359 c 11.22907,-6.58154 16.8364,-18.19902 16.8782,-34.96881 0.0404,-16.19394 -4.68364,-25.26924 -16.8842,-32.43642 -6.34687,-3.72845 -10.97752,-4.34224 -32.75939,-4.34224 -29.35533,0 -34.70478,1.83408 -44.00616,15.08765 -11.13802,15.87064 -9.90866,35.21113 3.12118,49.10237 10.62977,11.33252 16.74936,13.10626 42.99895,12.46312 18.94356,-0.46414 24.62489,-1.37342 30.65142,-4.90567 z M 218.41126,731.83446 c 0.45397,-4.72802 -1.88016,-12.43778 -7.19334,-23.75997 l -7.86538,-16.76084 -32.95633,-12.92217 c -18.12598,-7.10719 -36.19778,-13.44818 -40.15955,-14.09109 -10.45669,-1.69688 -12.91115,2.83105 -12.91115,23.8182 0,28.05588 6.63638,43.57005 21.14081,49.42184 3.00485,1.21231 21.24015,1.95092 42.27838,1.71247 l 36.99453,-0.41931 z m 332.27873,-1.1623 v -9.21842 l -11.09836,-1.33307 c -13.58207,-1.6314 -160.68138,-1.29465 -216.98689,0.49674 -44.6913,1.42188 -46.74267,2.06124 -43.83131,13.66104 l 1.40855,5.61213 h 135.254 135.25401 z m 150.59468,-0.84879 9.01029,-9.01023 0.71955,-23.37969 c 0.92491,-30.05162 0.0447,-33.6459 -8.23946,-33.6459 -3.51032,0 -22.19938,6.38937 -41.53127,14.19861 l -35.14888,14.1986 -6.88555,14.90286 c -15.44397,33.42644 -15.63382,33.24733 34.34657,32.40134 l 38.71847,-0.65537 z"
       id="path1924"
       transform="scale(0.26458333)" /><path
       style="fill:#ffff11;fill-opacity:1;fill-rule:evenodd;stroke-width:20;stroke-linecap:round;stroke-linejoin:bevel"
       d="m 145.57217,852.48277 -32.00157,-0.6592 -9.6019,-8.45192 C 88.84443,830.05873 88.78687,829.66449 88.78687,739.38692 v -79.77766 l 11.123113,-11.12319 11.123117,-11.12319 286.94709,-0.65346 c 157.8209,-0.3594 294.93778,-0.0243 304.70419,0.74466 l 17.7571,1.39811 10.25304,10.25304 10.25305,10.25304 v 79.91711 c 0,45.88433 -0.8825,82.99422 -2.07233,87.14292 -1.13979,3.9742 -4.70712,9.99839 -7.9274,13.3871 -12.07129,12.70261 -10.96066,12.55174 -101.2413,13.75476 l -82.95687,1.10544 -13.28674,-26.67422 -13.28677,-26.67422 -8.52529,-1.25915 c -4.6889,-0.69253 -51.21791,-0.95766 -103.39779,-0.58917 l -94.87251,0.66997 -3.42724,5.01943 c -1.88498,2.76068 -8.80905,14.65178 -15.38684,26.42466 l -11.95961,21.40524 -52.51657,0.077 c -28.88411,0.0423 -66.91728,-0.21971 -84.51814,-0.58227 z m 57.73949,-20.86009 c 12.03528,-8.98564 14.42757,-14.52925 14.42757,-33.43283 0,-21.59708 -2.64876,-27.01181 -16.619,-33.97347 -9.39929,-4.68386 -13.22956,-5.28617 -32.94594,-5.18073 -27.58812,0.14755 -34.62827,2.48886 -43.17361,14.35804 -5.97277,8.29597 -6.61819,10.69918 -6.61819,24.64296 0,14.074 0.57842,16.17431 6.49223,23.57417 11.1525,13.95494 17.1853,15.88964 46.85796,15.0272 21.9049,-0.63667 26.7435,-1.40513 31.57898,-5.01534 z m 492.43677,0.0951 c 11.57815,-8.65684 14.47994,-14.81929 15.18594,-32.25017 0.81585,-20.14209 -3.14172,-28.64141 -16.7169,-35.90145 -8.58573,-4.59168 -11.2138,-4.9062 -34.65787,-4.14775 -14.28688,0.4622 -27.67618,1.96999 -30.65261,3.45184 -2.90671,1.44714 -8.091,6.56015 -11.52066,11.36224 -14.49501,20.29548 -6.4083,51.41664 15.74969,60.61159 2.91195,1.20837 16.84276,1.97709 31.03344,1.71246 22.2561,-0.41504 26.54044,-1.07152 31.57897,-4.83876 z M 218.79621,731.00009 c 0,-5.78183 -2.63977,-14.51576 -7.54951,-24.97824 l -7.54952,-16.08774 -34.72109,-13.07328 c -19.09661,-7.19031 -37.46247,-13.07328 -40.81303,-13.07328 -10.03323,0 -11.39701,3.77391 -10.49354,29.03821 0.68463,19.14499 1.61264,24.16273 5.85073,31.63476 8.01846,14.13709 12.40308,15.32666 56.69596,15.38192 l 38.58,0.0481 z m 331.89378,-0.5266 c 0,-9.05696 -0.27803,-9.46925 -7.27031,-10.78101 -13.20963,-2.47814 -253.21285,0.15765 -259.61879,2.85122 -4.78004,2.00991 -5.81343,3.76894 -5.81343,9.89565 v 7.45123 h 136.35126 136.35127 z m 151.82994,0.28745 8.96008,-9.12964 -0.59253,-28.39338 -0.59252,-28.39339 -9.51288,0.15324 c -6.43714,0.10369 -20.19288,4.3974 -42.54462,13.27982 l -33.03174,13.12658 -7.66224,16.76228 c -7.84553,17.16325 -9.71081,28.43121 -5.01978,30.32409 1.45336,0.58644 20.28106,1.14136 41.83931,1.23315 l 39.19685,0.16689 z"
       id="path1926"
       transform="scale(0.26458333)" /><path
       style="mix-blend-mode:normal;fill:#ffff11;fill-opacity:1;fill-rule:evenodd;stroke-width:20;stroke-linecap:round;stroke-linejoin:bevel"
       d="m 144.37279,852.05423 -33.20095,-1.18006 -8.51704,-8.32423 C 88.888293,829.0951 88.78687,828.34062 88.78687,739.38725 v -79.77731 l 11.12323,-11.12353 11.12323,-11.12353 286.94698,-0.64618 c 157.82082,-0.3554 295.03292,-0.0135 304.91574,0.75984 17.94793,1.4044 17.98042,1.41767 28.01014,11.44255 l 10.04138,10.03652 v 80.11844 c 0,46.01585 -0.8821,83.19412 -2.07233,87.34425 -1.13979,3.9742 -4.70712,9.99839 -7.9274,13.3871 -12.14228,12.77732 -11.01955,12.62461 -101.31313,13.78169 l -82.89312,1.06227 -13.22089,-26.54199 c -11.69911,-23.48686 -13.93558,-26.68493 -19.42978,-27.78377 -8.56831,-1.71366 -182.11109,-1.26521 -193.64365,0.5004 l -9.33252,1.42879 -14.19207,25.36767 -14.19208,25.36768 -52.57843,0.12303 c -28.91814,0.0676 -67.51886,-0.40793 -85.77938,-1.05698 z m 58.93887,-20.43155 c 12.0634,-9.00663 14.42757,-14.5106 14.42757,-33.5885 0,-19.857 -2.97377,-26.11557 -16.07577,-33.83291 -6.10215,-3.59429 -10.9799,-4.22795 -32.54561,-4.22795 -29.93547,0 -36.4286,2.10313 -44.65065,14.46234 -10.82004,16.26447 -8.61849,40.38162 4.79342,52.50993 10.2091,9.23205 15.58042,10.45675 42.47206,9.68395 21.91356,-0.62974 26.74159,-1.39523 31.57898,-5.00686 z m 492.43007,0.0951 c 12.36947,-9.23789 14.55323,-14.45787 14.55323,-34.78754 0,-18.52316 -0.0896,-18.84583 -7.30513,-26.29031 -9.03939,-9.32627 -17.27169,-11.71082 -40.25927,-11.66138 -30.39392,0.0654 -39.99354,4.29664 -48.82711,21.52178 -7.12866,13.90062 -3.30532,36.55257 7.83929,46.44525 10.33202,9.17139 15.72345,10.4118 42.42002,9.75963 22.10051,-0.53989 26.56864,-1.24556 31.57897,-4.98743 z M 218.35654,729.71659 c -0.53767,-5.5957 -4.03595,-16.80918 -7.77393,-24.91884 l -6.79634,-14.74485 -32.41898,-12.1694 c -38.90526,-14.60421 -47.16227,-16.35424 -51.18781,-10.84899 -3.47264,4.74912 -3.87522,36.3271 -0.61289,48.07467 2.66933,9.61221 13.09726,22.05541 19.52873,23.30281 2.56017,0.49655 21.66124,1.03237 42.44683,1.1907 l 37.79198,0.28789 z m 332.33345,0.7569 c 0,-9.12859 -0.23184,-9.46058 -7.56724,-10.83671 -12.95754,-2.43085 -252.77258,0.33768 -259.32186,2.99373 -4.79646,1.94518 -5.81343,3.66109 -5.81343,9.80884 v 7.45123 h 136.35126 136.35127 z m 151.82994,0.28745 8.96008,-9.12964 -0.59253,-28.39338 -0.59252,-28.39339 -9.77787,0.31968 c -6.42016,0.2099 -21.03433,4.77191 -42.55736,13.28485 l -32.77946,12.96518 -6.69489,14.9728 c -14.95617,33.44883 -14.89801,33.50354 35.608,33.50354 h 39.46648 z"
       id="path1928"
       transform="scale(0.26458333)" /><path
       style="fill:#ffff11;fill-opacity:1;fill-rule:evenodd;stroke-width:20;stroke-linecap:round;stroke-linejoin:bevel"
       d="m 158.54798,720.04226 c -8.43885,-0.37938 -11.18531,-1.21673 -14.0559,-4.2854 -1.97651,-2.1129 -3.5893,-4.5232 -4.30307,-6.43093 -1.80997,-4.83759 -2.46584,-17.56004 -0.98176,-19.04412 0.45385,-0.45385 3.27989,0.53522 15.64128,5.47422 23.38271,9.34256 31.00335,13.0138 34.05182,16.40443 1.08888,1.2111 4.11516,6.69513 3.84416,6.96613 -0.9353,0.9353 -21.50706,1.48614 -34.19653,0.91567 z"
       id="path1930"
       transform="scale(0.26458333)" /><path
       style="fill:#ffff11;fill-opacity:1;fill-rule:evenodd;stroke-width:20;stroke-linecap:round;stroke-linejoin:bevel"
       d="m 161.49801,816.51825 c -6.30988,-0.46628 -9.64699,-1.16695 -12.59503,-2.64449 -6.78352,-3.39987 -9.35315,-7.53115 -9.69359,-15.58467 -0.1708,-4.04049 0.15589,-6.7897 1.02705,-8.64302 1.10228,-2.34499 5.9346,-6.86031 8.68997,-8.11991 2.67092,-1.221 4.35182,-1.33823 19.13445,-1.3345 14.44866,0.004 16.79969,0.14689 20.07913,1.22346 4.37578,1.43646 8.82001,6.67918 10.18451,12.01433 1.02468,4.00646 0.57079,7.95978 -1.37647,11.98883 -0.88953,1.8405 -1.51283,2.66885 -3.49031,4.63854 -2.02027,2.01231 -2.81108,2.5964 -4.91775,3.63222 -2.86635,1.40935 -4.59506,1.90024 -8.63662,2.45247 -3.47933,0.4754 -14.12223,0.69325 -18.40534,0.37674 z"
       id="path1932"
       transform="scale(0.26458333)" /><path
       style="mix-blend-mode:normal;fill:#ffff11;fill-opacity:1;fill-rule:evenodd;stroke-width:20;stroke-linecap:round;stroke-linejoin:bevel"
       d="m 645.59937,814.54736 c -10.45429,-3.03308 -16.51356,-14.68486 -12.0875,-23.24391 4.91831,-9.51098 6.97792,-10.26799 27.93598,-10.26799 20.95845,0 23.02544,0.75955 27.94245,10.26799 4.68794,9.06548 -2.2527,20.73619 -13.94539,23.44923 -7.25368,1.68307 -23.72733,1.56973 -29.84554,-0.20532 z"
       id="path1934"
       transform="scale(0.26458333)" /><path
       style="mix-blend-mode:normal;fill:#ffff11;fill-opacity:1;fill-rule:evenodd;stroke-width:20;stroke-linecap:round;stroke-linejoin:bevel"
       d="m 639.02901,718.324 c 0,-2.87472 4.01988,-8.2843 7.26516,-9.77678 5.53996,-2.54778 43.65614,-17.94745 44.42228,-17.94745 1.10573,0 0.60827,9.50464 -0.82148,15.69545 -0.76324,3.30478 -3.12471,7.4836 -5.27952,9.34253 -3.64056,3.14069 -5.27831,3.36331 -24.74253,3.36331 -11.46415,0 -20.84391,-0.30468 -20.84391,-0.67706 z"
       id="path1936"
       transform="scale(0.26458333)" /><path
       style="fill:#ffff11;fill-opacity:1;fill-rule:evenodd;stroke-width:20;stroke-linecap:round;stroke-linejoin:bevel"
       d="m 317.646,838.58544 8.99187,-17.93766 h 88.58574 88.58573 l 8.56505,17.20673 c 4.71077,9.4637 8.56505,17.53565 8.56505,17.93766 0,0.40201 -47.7642,0.73093 -106.14266,0.73093 H 308.65413 Z"
       id="path1938"
       transform="scale(0.26458333)" /><path
       style="fill:#ffff11;fill-opacity:1;fill-rule:evenodd;stroke-width:20;stroke-linecap:round;stroke-linejoin:bevel"
       d="m 633.45163,908.92197 c -20.72409,-0.80675 -21.37885,-0.93428 -25.38289,-4.94401 -3.60697,-3.61209 -4.17933,-5.48756 -4.67594,-15.32175 l -0.56587,-11.20585 31.92799,-0.0678 c 17.56039,-0.0373 44.38692,-0.61796 59.61451,-1.29043 29.57863,-1.30623 33.54484,-2.30979 45.69999,-11.56333 2.54403,-1.93673 4.95667,-3.52133 5.36142,-3.52133 0.40474,0 0.44201,8.91277 0.0828,19.80616 l -0.65309,19.80616 -5.45573,4.80199 -5.45572,4.802 -39.61233,-0.23688 c -21.78677,-0.13027 -49.18509,-0.60951 -60.88515,-1.06497 z"
       id="path1940"
       transform="scale(0.26458333)" /><path
       style="fill:#ffff11;fill-opacity:1;fill-rule:evenodd;stroke-width:20;stroke-linecap:round;stroke-linejoin:bevel"
       d="m 90.061983,904.84964 -5.605517,-5.85066 v -18.96314 -18.96313 l 9.028848,5.83562 c 4.965868,3.2096 12.441606,6.56754 16.612756,7.46209 4.17114,0.89455 32.47916,2.06408 62.9067,2.59896 l 55.3228,0.97251 -0.73562,9.16431 c -0.87356,10.88268 -4.35524,18.34108 -9.46959,20.28554 -2.04211,0.77642 -30.42987,1.83846 -63.0839,2.36011 l -59.370959,0.94845 z"
       id="path1942"
       transform="scale(0.26458333)" /><path
       style="fill:#ffff11;fill-opacity:1;fill-rule:evenodd;stroke-width:20;stroke-linecap:round;stroke-linejoin:bevel"
       d="m 67.189469,609.056 c -5.621219,-2.77423 -9.639488,-9.28757 -9.639488,-15.62495 0,-3.43955 1.422909,-6.19987 5.082336,-9.85929 l 5.082336,-5.08234 h 18.016802 c 10.289216,0 19.618915,0.72997 21.752115,1.70192 5.44852,2.48252 8.36379,9.9137 8.36379,21.31976 v 9.86402 l -22.048365,-0.034 c -16.56611,-0.0256 -23.182487,-0.59376 -26.609526,-2.28509 z"
       id="path1944"
       transform="scale(0.26458333)" /><path
       style="fill:#ffff11;fill-opacity:1;fill-rule:evenodd;stroke-width:20;stroke-linecap:round;stroke-linejoin:bevel"
       d="m 714.89035,610.52085 c -1.89303,-1.92291 -1.24279,-16.88818 0.9632,-22.16785 3.66471,-8.77088 6.76984,-9.86358 28.02941,-9.86358 h 18.98487 l 4.41113,4.41113 c 5.34069,5.34068 6.68175,11.17216 4.0292,17.52059 -3.68794,8.82649 -7.72879,10.14713 -32.80839,10.72254 -12.36857,0.28378 -22.99281,0.004 -23.60942,-0.62283 z"
       id="path1946"
       transform="scale(0.26458333)" /><path
       style="fill:#ffff11;fill-opacity:1;fill-rule:evenodd;stroke-width:20;stroke-linecap:round;stroke-linejoin:bevel"
       d="m 423.02973,542.87552 c -38.08454,-11.50367 -63.42428,-45.33045 -63.5071,-84.77752 -0.0782,-37.25137 25.23463,-71.0667 62.7597,-83.84042 6.25364,-2.12877 12.51477,-2.79406 26.15908,-2.7796 9.86571,0.0105 19.04069,0.68312 20.38884,1.49481 2.0511,1.23491 -2.43593,6.59932 -27.49122,32.86669 -17.40665,18.24872 -31.09193,33.89417 -32.68814,37.37011 -3.14037,6.83854 -3.7138,22.10155 -1.17402,31.24894 1.03284,3.71995 4.48289,8.69943 9.51157,13.72811 9.55856,9.55856 20.31456,13.44653 33.44929,12.0909 11.54383,-1.19142 19.09175,-6.8559 52.59468,-39.47063 32.85301,-31.98204 30.63934,-31.89846 30.57578,-1.15446 -0.0306,14.78547 -0.61853,19.49592 -3.34586,26.80507 -9.53877,25.56344 -28.85836,45.31866 -53.41963,54.62411 -12.58758,4.76904 -40.8448,5.71101 -53.81297,1.79389 z"
       id="path1948"
       transform="scale(0.26458333)" /><path
       style="fill:#ffff11;fill-opacity:1;fill-rule:evenodd;stroke-width:20;stroke-linecap:round;stroke-linejoin:bevel"
       d="m 433.4967,484.95142 c -13.78723,-7.18886 -19.47537,-22.86782 -13.13982,-36.219 1.40744,-2.96595 21.02469,-24.1087 43.59391,-46.98391 l 41.03494,-41.59128 4.2749,4.09562 4.27491,4.09562 16.15157,-16.10149 c 14.55346,-14.50833 16.55079,-16.0013 20.18626,-15.08885 3.60989,0.90602 5.64345,-0.54686 19.31497,-13.79959 31.68895,-30.71824 42.89807,-40.55504 50.56827,-44.37727 6.96789,-3.47224 9.68519,-3.9372 23.00941,-3.9372 13.39966,0 16.02926,0.45586 23.24969,4.03052 10.37041,5.13415 22.36423,17.32623 27.62775,28.08449 3.72601,7.61569 4.02707,9.4566 3.29443,20.14543 -0.71985,10.5025 -1.81417,13.89131 -10.20633,31.60633 -7.5239,15.88224 -9.37906,21.23147 -9.29504,26.80167 0.23361,15.48493 5.12215,18.0731 36.74852,19.45595 25.36222,1.10896 29.4803,2.45554 29.4803,9.63985 0,6.9887 -3.85332,8.22142 -25.69906,8.22142 -24.47416,0 -34.43702,-1.68654 -42.27919,-7.15714 -7.10489,-4.95628 -14.20513,-15.89043 -15.72859,-24.22154 -1.67025,-9.13394 0.70392,-18.3298 9.64922,-37.37432 12.73468,-27.11211 13.32937,-34.45212 3.85135,-47.53614 -6.53937,-9.02734 -16.06674,-14.02063 -28.4412,-14.90602 -15.28022,-1.09329 -20.12263,1.85837 -48.32231,29.45456 -28.22366,27.61967 -30.65797,30.64948 -28.01959,34.8742 1.70739,2.73397 0.45369,4.43026 -13.96152,18.8903 -8.71054,8.73764 -15.83735,16.61221 -15.83735,17.49904 0,0.88683 1.37631,2.85797 3.05848,4.38031 3.03586,2.74741 2.77878,3.04877 -34.75421,40.74017 -20.79698,20.88476 -41.06824,40.59598 -45.04725,43.80274 -6.50573,5.24307 -8.08691,5.82952 -15.69545,5.82124 -4.74723,-0.004 -10.42773,-1.03475 -12.94197,-2.34571 z"
       id="path1950"
       transform="scale(0.26458333)" /><path
       style="fill:#ffff11;fill-opacity:1;fill-rule:evenodd;stroke-width:20;stroke-linecap:round;stroke-linejoin:bevel"
       d="m 123.60544,470.68207 c -2.39602,-0.89054 -5.24797,-5.16868 -9.31719,-13.9765 -6.60256,-14.29122 -11.17352,-18.53355 -27.399601,-25.42973 -9.652352,-4.1023 -13.766013,-8.72351 -11.958464,-13.43391 0.471415,-1.22849 6.420801,-4.97715 13.220858,-8.33036 14.820937,-7.30843 19.026897,-11.43882 26.919117,-26.43543 9.6375,-18.31297 12.96291,-18.37591 22.05042,-0.41736 7.21024,14.24874 13.09856,20.3032 25.06573,25.77298 11.70564,5.35025 14.94805,8.03037 14.94805,12.35576 0,4.45145 -3.64042,7.3987 -13.85026,11.21307 -12.16377,4.54435 -16.38416,8.70007 -24.97892,24.59614 -4.15196,7.67908 -8.38101,14.27848 -9.3979,14.66534 -1.01688,0.38686 -3.40271,0.12586 -5.30184,-0.58 z m 11.25368,-40.50095 c 4.3421,-4.28817 7.89473,-8.51528 7.89473,-9.3936 0,-0.87831 -3.70061,-5.25157 -8.22359,-9.71836 l -8.22358,-8.12143 -8.96839,8.87481 -8.9684,8.87481 8.55006,8.64021 c 4.70253,4.75212 8.8863,8.64022 9.29725,8.64022 0.41095,0 4.29982,-3.5085 8.64192,-7.79666 z"
       id="path1952"
       transform="scale(0.26458333)" /><path
       style="fill:#ffff11;fill-opacity:1;fill-rule:evenodd;stroke-width:20;stroke-linecap:round;stroke-linejoin:bevel"
       d="m 235.04499,368.09566 c -1.28969,-1.43875 -4.16149,-7.16978 -6.38177,-12.73563 -4.84104,-12.13562 -11.48383,-18.48198 -27.2515,-26.03542 -17.42162,-8.34576 -17.43611,-13.5386 -0.0608,-21.78597 15.40031,-7.30991 20.02622,-11.73449 26.82039,-25.6531 7.23167,-14.81487 8.78451,-16.50222 13.98545,-15.19687 3.16541,0.79446 5.0515,3.3019 9.14015,12.15127 7.15589,15.48798 12.44433,20.94133 27.08776,27.93248 19.69398,9.40241 19.70556,13.55083 0.0657,23.53263 -15.77022,8.01508 -19.16527,11.31918 -25.13184,24.45853 -5.81793,12.81205 -8.30634,15.94799 -12.65493,15.94799 -1.80052,0 -4.32887,-1.17716 -5.61857,-2.61591 z m 15.08137,-58.17939 -9.22522,-9.30795 -5.35061,4.26937 c -2.94283,2.34816 -7.281,6.30255 -9.64038,8.78754 l -4.28977,4.51815 9.52159,9.72162 9.52159,9.72162 9.34401,-9.20119 9.34401,-9.2012 z"
       id="path1954"
       transform="scale(0.26458333)" /><path
       style="fill:#ffff11;fill-opacity:1;fill-rule:evenodd;stroke-width:20;stroke-linecap:round;stroke-linejoin:bevel"
       d=""
       id="path1956"
       transform="scale(0.26458333)" /><path
       style="fill:#ffff11;fill-opacity:1;fill-rule:evenodd;stroke-width:20;stroke-linecap:round;stroke-linejoin:bevel"
       d="m 75.939445,337.51433 c -1.746655,-1.88401 -5.836028,-9.14311 -9.087498,-16.13132 -7.416049,-15.93893 -12.626222,-20.89982 -32.039594,-30.50667 -12.952882,-6.40983 -15.450029,-8.21287 -15.824347,-11.42585 -0.590404,-5.06777 2.515622,-7.59153 16.561387,-13.45677 16.892005,-7.05377 23.209869,-13.29707 32.352457,-31.97063 11.212804,-22.90193 14.167999,-22.85376 26.101509,0.42548 4.491704,8.76217 10.403291,18.07097 13.136861,20.68623 2.73357,2.61526 11.46091,7.75797 19.39408,11.42824 21.79233,10.0822 21.65794,14.22779 -0.80548,24.84827 -18.54668,8.76869 -22.96041,13.22839 -32.909527,33.25231 -8.345797,16.79701 -11.203962,18.97294 -16.879848,12.85071 z m 16.666319,-45.30826 c 3.32824,-3.3041 8.308316,-7.68754 11.066836,-9.74098 l 5.0155,-3.73351 -8.29109,-6.61593 c -4.560104,-3.63876 -10.816778,-9.92783 -13.903726,-13.9757 l -5.612633,-7.35977 -4.55216,5.77902 c -5.709009,7.24766 -10.597128,12.18083 -17.283705,17.443 l -5.231817,4.11732 9.176514,8.5522 c 5.047081,4.70372 11.062118,11.13947 13.366748,14.30167 l 4.190235,5.74946 3.003975,-4.25466 c 1.652186,-2.34006 5.727082,-6.95801 9.055323,-10.26212 z"
       id="path1958"
       transform="scale(0.26458333)" /></g></svg>
