<?xml version="1.0" encoding="UTF-8" standalone="no"?>
<!-- Created with Inkscape (http://www.inkscape.org/) -->

<svg
   width="210mm"
   height="297mm"
   viewBox="0 0 210 297"
   version="1.1"
   id="svg5"
   xml:space="preserve"
   inkscape:version="1.2.2 (b0a8486541, 2022-12-01)"
   sodipodi:docname="shapoo.svg"
   xmlns:inkscape="http://www.inkscape.org/namespaces/inkscape"
   xmlns:sodipodi="http://sodipodi.sourceforge.net/DTD/sodipodi-0.dtd"
   xmlns="http://www.w3.org/2000/svg"
   xmlns:svg="http://www.w3.org/2000/svg"><sodipodi:namedview
     id="namedview7"
     pagecolor="#505050"
     bordercolor="#ffffff"
     borderopacity="1"
     inkscape:showpageshadow="0"
     inkscape:pageopacity="0"
     inkscape:pagecheckerboard="1"
     inkscape:deskcolor="#505050"
     inkscape:document-units="mm"
     showgrid="false"
     inkscape:zoom="0.47304293"
     inkscape:cx="397.42693"
     inkscape:cy="582.39957"
     inkscape:window-width="1366"
     inkscape:window-height="705"
     inkscape:window-x="0"
     inkscape:window-y="35"
     inkscape:window-maximized="1"
     inkscape:current-layer="layer1" /><defs
     id="defs2" /><g
     inkscape:label="Camada 1"
     inkscape:groupmode="layer"
     id="layer1"><path
       style="fill:#000000;stroke-width:1"
       d="m 38.419813,268.16941 c -5.34441,-0.88599 -11.12557,-4.86436 -13.86747,-9.54306 -2.80311,-4.78316 -2.68177,-1.54231 -2.53573,-67.72499 l 0.13356,-60.52468 1.06605,-3.45045 c 4.22792,-13.68442 14.15299,-23.5958 27.76393,-27.725643 3.61351,-1.096416 5.00548,-1.26375 10.74937,-1.292231 5.49006,-0.02724 7.21489,0.144371 10.26913,1.02161 8.97817,2.578714 15.61638,6.881734 21.12318,13.692474 4.27434,5.28644 8.433337,14.71489 8.433337,19.11837 v 1.22807 H 75.618013 c -22.34452,0 -26.17898,0.10104 -27.683,0.72946 -2.234,0.93343 -3.71243,2.32429 -4.98591,4.6906 l -1.01458,1.88524 -0.12727,44.2678 c -0.14459,50.28862 -0.31301,47.78231 3.43239,51.07914 1.24966,1.09999 2.98241,2.08499 4.2128,2.3948 1.21624,0.30626 6.32034,0.52628 12.20853,0.52628 h 10.11849 l 0.18041,11.90057 c 0.18978,12.51897 0.0719,11.69152 2.48516,17.43844 0.32637,0.77721 -0.62872,0.82162 -16.55339,0.7697 -9.29485,-0.0303 -18.05718,-0.24698 -19.47183,-0.4815 z m 51.41071,0.0852 c -2.45034,-0.61064 -5.29018,-2.86447 -6.50241,-5.16062 -0.98939,-1.87406 -1.09663,-2.69217 -1.09663,-8.36574 v -6.28855 h 17.47322 17.473217 l -0.1526,6.79543 c -0.15051,6.70246 -0.17223,6.82336 -1.58745,8.83705 -0.78917,1.1229 -2.37984,2.57185 -3.53482,3.2199 -2.02105,1.13399 -2.44536,1.18167 -11.2905,1.26871 -5.054787,0.0497 -9.906707,-0.088 -10.782027,-0.30618 z m 49.567617,-0.0247 c -3.07475,-0.44925 -7.81464,-2.66987 -10.22873,-4.79213 l -1.8426,-1.61986 0.0905,-11.99131 c 0.0822,-10.89033 0.30851,-13.96028 2.46497,-33.4359 2.14015,-19.32822 2.35957,-22.28183 2.22342,-29.92815 -0.14481,-8.13264 -0.20521,-8.59919 -1.45996,-11.2785 -1.60251,-3.42191 -4.09335,-6.52986 -6.52065,-8.13617 -1.73688,-1.14942 -1.81116,-1.3003 -1.55089,-3.15033 0.60338,-4.28876 1.70876,-7.81187 3.78893,-12.07625 1.85836,-3.80969 2.82675,-5.11648 6.49324,-8.76239 4.97261,-4.94471 9.53286,-7.52403 16.28648,-9.21179 5.8705,-1.46706 13.70432,-1.112 19.46138,0.88207 2.27109,0.78664 5.34638,2.14399 6.83399,3.01633 3.45111,2.02375 10.24504,8.82534 12.30308,12.31694 2.25046,3.81804 4.25522,9.97915 4.60902,14.16462 l 0.3028,3.58207 -21.39436,0.13617 c -20.86941,0.13282 -21.44062,0.16105 -23.2796,1.15074 -2.36631,1.27347 -3.75718,2.75191 -4.6906,4.98591 -0.63257,1.51394 -0.72946,5.74442 -0.72946,31.85064 v 30.10481 l 1.09663,2.0772 c 0.60315,1.14246 1.99976,2.71346 3.10359,3.49112 l 2.00697,1.41393 21.87581,0.1314 21.8758,0.13139 v 4.24309 c 0,6.81642 -1.88289,11.32298 -6.54944,15.67556 -2.92395,2.72725 -6.28141,4.34038 -10.4177,5.00532 -3.47548,0.55871 -32.36093,0.57746 -36.15261,0.0235 z m -57.206447,-29.8055 c -0.25481,-0.75451 -4.48954,-39.80281 -4.34458,-40.0613 0.10902,-0.19441 9.92929,-0.35348 21.82282,-0.35348 11.893527,0 21.713807,0.15907 21.822817,0.35348 0.14496,0.25849 -4.08976,39.30679 -4.34458,40.0613 -0.0219,0.0648 -7.88709,0.11783 -17.478237,0.11783 -9.59115,0 -17.45635,-0.053 -17.47824,-0.11783 z m 70.264897,-32.63818 v -27.5716 h 20.03065 20.03065 v 27.5716 27.57161 H 172.48724 152.45659 Z M 52.067683,185.51989 v -42.65351 h 24.9794 24.979397 v 10.09963 10.09962 l -10.042207,0.15136 -10.04221,0.15135 -3.5506,1.75601 c -4.34143,2.14713 -7.41998,5.2842 -9.50511,9.68582 -1.48998,3.14526 -1.50226,3.23201 -1.65534,11.69541 -0.1328,7.34192 0.0801,10.6162 1.53202,23.56547 0.92744,8.27136 1.80178,15.72812 1.94299,16.57059 l 0.25675,1.53175 h -9.44755 -9.44754 z m 24.9794,-0.53446 c 0,-4.29265 0.81195,-6.65918 3.05401,-8.90123 2.88778,-2.88779 3.95287,-3.05401 19.56884,-3.05401 15.615977,0 16.681057,0.16622 19.568837,3.05401 2.24206,2.24205 3.05401,4.60858 3.05401,8.90123 v 3.12666 H 99.669933 77.047083 Z m 60.330237,-65.51627 c 0.003,-8.94066 0.34874,-10.77349 2.49341,-13.21613 2.85776,-3.25481 3.73935,-3.42597 17.70648,-3.4376 l 12.42592,-0.0104 2.35074,1.27943 c 1.7167,0.93435 2.71791,1.91954 3.71201,3.65265 l 1.36126,2.37321 0.004,8.6014 c 0.002,4.73077 -0.0752,8.6014 -0.17258,8.6014 -0.0974,0 -1.40238,-0.54191 -2.90005,-1.20426 -4.92727,-2.17907 -10.22021,-3.1875 -16.71794,-3.18517 -7.42546,0.003 -11.15542,0.80006 -19.44152,4.15621 -0.76617,0.31033 -0.8246,-0.23063 -0.82216,-7.61079 z M 41.698873,84.328866 c 0,-8.424531 0.58586,-11.128893 2.93375,-13.542331 1.68524,-1.732298 4.70169,-3.302987 6.37461,-3.319316 1.03174,-0.01007 1.06045,-0.144337 1.06045,-4.9591 v -4.94875 h -5.19954 c -3.38054,0 -5.74979,-0.229906 -6.7724,-0.657178 -4.45317,-1.860657 -4.08332,-7.890064 0.56797,-9.259086 1.18125,-0.347679 9.02553,-0.465135 24.36498,-0.364826 22.1512,0.144853 22.66215,0.169185 24.50809,1.167093 1.03688,0.560535 4.27124,3.444196 7.18747,6.408135 5.053847,5.136539 5.302227,5.481461 5.302227,7.36317 0,2.369887 -0.97017,3.9994 -2.842977,4.775145 -2.65441,1.099492 -4.13945,0.335576 -9.17653,-4.720478 l -4.69429,-4.711975 h -6.725 -6.72501 v 4.94875 c 0,4.851982 0.0213,4.948749 1.08574,4.948749 0.59716,0 2.16384,0.537245 3.48154,1.193878 2.6476,1.319354 4.48793,3.610048 5.28854,6.582728 0.6442,2.391929 0.68789,16.260176 0.0512,16.260176 -0.25397,0 -1.2614,-0.311003 -2.23872,-0.691114 -4.82948,-1.878338 -9.02385,-2.68875 -15.20927,-2.938647 -8.20296,-0.331406 -12.14215,0.295421 -21.79806,3.468649 -0.7616,0.250284 -0.82479,-0.286311 -0.82479,-7.003672 z"
       id="path288" /></g></svg>
